<svg xmlns="http://www.w3.org/2000/svg" width="1890" height="1417" viewBox="0 0 1890 1417" version="1.1"><path d="M 1410.635 602.977 C 1409.609 605.085, 1408.995 607.416, 1409.269 608.155 C 1409.619 609.099, 1409.996 608.904, 1410.536 607.500 C 1410.958 606.400, 1411.951 604.745, 1412.742 603.822 C 1413.644 602.769, 1413.867 601.585, 1413.340 600.643 C 1412.689 599.480, 1412.081 600.004, 1410.635 602.977 M 1391.894 610.493 C 1381.105 616.113, 1318.747 628.370, 1275 633.468 C 1258.162 635.431, 1251.711 637.114, 1246.240 640.970 C 1241.190 644.530, 1239.696 644.696, 1237 642 C 1235.810 640.810, 1235.006 640.506, 1235.015 641.250 C 1235.038 643.094, 1236.217 644.551, 1238.778 645.900 C 1240.145 646.621, 1240.764 647.574, 1240.325 648.284 C 1239.922 648.935, 1241.597 647.843, 1244.047 645.858 C 1246.496 643.873, 1249.883 641.547, 1251.574 640.690 C 1255.458 638.720, 1267.552 636.517, 1285.500 634.511 C 1301.911 632.677, 1315.699 630.431, 1344.500 624.901 C 1373.964 619.244, 1385.482 616.394, 1393.137 612.867 C 1398.513 610.389, 1400.163 610.017, 1401.826 610.907 C 1403.097 611.587, 1404.103 611.643, 1404.467 611.053 C 1405.231 609.818, 1401.788 607.987, 1398.816 608.047 C 1397.542 608.072, 1394.427 609.173, 1391.894 610.493 M 1408.621 613.145 C 1408.138 615.560, 1409.606 629, 1410.353 629 C 1410.434 629, 1410.500 624.725, 1410.500 619.501 C 1410.500 609.882, 1409.768 607.408, 1408.621 613.145 M 1522 614.671 C 1522 615.591, 1519.914 618.341, 1517.365 620.784 C 1512.862 625.099, 1512.584 625.210, 1507.615 624.696 C 1504.802 624.405, 1501.489 623.852, 1500.254 623.468 C 1498.384 622.886, 1496.650 624.085, 1489.894 630.634 C 1485.431 634.960, 1480.080 640.975, 1478.002 644 C 1473.584 650.431, 1460.695 663.570, 1452.497 670 C 1442.143 678.120, 1431.792 688.426, 1429.899 692.500 C 1428.877 694.700, 1427.428 697.400, 1426.679 698.500 C 1425.788 699.808, 1425.567 701.538, 1426.040 703.500 L 1426.763 706.500 1426.882 703.472 C 1426.947 701.801, 1427.896 699.678, 1429 698.732 C 1430.100 697.790, 1431 696.322, 1431 695.469 C 1431 692.025, 1438.512 684.671, 1460.392 666.697 C 1467.281 661.038, 1474.492 653.269, 1478.846 646.815 C 1480.585 644.238, 1485.582 638.521, 1489.952 634.110 L 1497.896 626.090 1506.198 626.630 L 1514.500 627.169 1518.750 623.200 C 1521.991 620.173, 1523 618.492, 1523 616.116 C 1523 614.402, 1522.775 613, 1522.500 613 C 1522.225 613, 1522 613.752, 1522 614.671 M 1412.079 636.219 C 1411.947 639.088, 1417.942 676.280, 1418.638 676.911 C 1418.995 677.235, 1419.035 676.150, 1418.726 674.500 C 1418.418 672.850, 1416.982 663.625, 1415.536 654 C 1412.903 636.483, 1412.227 633.002, 1412.079 636.219 M 1339.500 662.408 C 1329.798 666.134, 1328 666.922, 1328 667.450 C 1328 667.725, 1329.237 667.480, 1330.750 666.905 C 1332.263 666.330, 1333.725 665.834, 1334 665.802 C 1334.275 665.771, 1334.950 665.594, 1335.500 665.408 C 1336.050 665.223, 1338.525 664.387, 1341 663.550 C 1346.665 661.635, 1348.697 661.629, 1354.030 663.511 C 1359.789 665.543, 1360.387 664.530, 1354.899 662.040 C 1349.312 659.505, 1346.910 659.563, 1339.500 662.408 M 1249.100 663.527 C 1249.045 664.092, 1249.934 671.067, 1251.076 679.027 C 1253.080 693.001, 1253.518 703.797, 1252.982 726 C 1252.807 733.260, 1253.542 742.118, 1255.364 754.709 C 1258.387 775.591, 1258.550 780.363, 1256.500 788 C 1254.851 794.142, 1254.554 797.909, 1255.832 796.450 C 1257.284 794.793, 1259 785.079, 1259 778.517 C 1259 775.035, 1257.840 764.381, 1256.422 754.843 C 1254.115 739.325, 1253.911 735.699, 1254.489 720.382 C 1255.028 706.075, 1254.782 700.491, 1252.992 686.382 C 1251.021 670.845, 1249.346 661.012, 1249.100 663.527 M 1373.825 669.394 C 1374.252 677.472, 1372.343 679.889, 1361.349 685.187 C 1355.983 687.773, 1351.880 690.535, 1349.977 692.844 C 1346.904 696.572, 1345.844 699.299, 1348.500 696.643 C 1349.325 695.818, 1350 694.709, 1350 694.180 C 1350 693.650, 1351.125 692.934, 1352.500 692.589 C 1353.875 692.244, 1355 691.494, 1355 690.922 C 1355 690.350, 1355.450 690.160, 1356 690.500 C 1356.550 690.840, 1357 690.341, 1357 689.392 C 1357 688.443, 1357.255 687.922, 1357.567 688.234 C 1358.502 689.168, 1364.826 687.050, 1368.792 684.475 C 1376.577 679.420, 1377.104 678.902, 1376.475 676.921 C 1376.120 675.802, 1376.336 675, 1376.992 675 C 1377.611 675, 1377.835 674.543, 1377.490 673.984 C 1377.144 673.425, 1376.472 673.208, 1375.995 673.503 C 1375.519 673.798, 1375.548 672.578, 1376.060 670.792 C 1377.090 667.198, 1376.563 664.432, 1374.712 663.717 C 1373.823 663.374, 1373.587 664.887, 1373.825 669.394 M 1313 667.406 C 1313 670.645, 1321.563 672.120, 1325.275 669.520 C 1327.335 668.077, 1327.180 668, 1322.223 668 C 1319.350 668, 1317 667.550, 1317 667 C 1317 666.450, 1316.523 666, 1315.941 666 C 1315.359 666, 1315.141 666.419, 1315.457 666.931 C 1315.774 667.443, 1315.506 668.187, 1314.862 668.585 C 1314.157 669.021, 1313.958 668.877, 1314.362 668.224 C 1314.731 667.627, 1314.575 666.856, 1314.016 666.510 C 1313.457 666.165, 1313 666.568, 1313 667.406 M 607.942 676.393 C 600.977 681.126, 595.563 691.916, 592.029 708.110 C 590.914 713.219, 589.631 717.769, 589.179 718.221 C 588.726 718.674, 586.633 714.647, 584.527 709.272 C 578.679 694.343, 577.333 692, 574.602 692 C 573.306 692, 571.685 692.675, 571 693.500 C 570.315 694.325, 568.712 695, 567.437 695 C 564.323 695, 563.769 696.178, 563.499 703.374 C 563.240 710.257, 559.628 721.761, 554.259 732.804 C 551.802 737.859, 551.028 740.428, 551.748 741.148 C 555.365 744.765, 560.484 736.579, 567.133 716.541 C 569.681 708.861, 572.156 702.455, 572.633 702.304 C 573.110 702.153, 575.876 707.760, 578.780 714.764 C 585.794 731.679, 586.218 732.450, 588.716 732.811 C 591.676 733.239, 592.294 731.763, 596.906 713.257 C 601.940 693.052, 605.555 685.090, 611.574 680.949 C 616.315 677.687, 616.664 677.064, 614.800 675.200 C 613.086 673.486, 611.922 673.689, 607.942 676.393 M 409.387 677.037 C 400.245 681.563, 393 690.265, 393 696.721 C 393 699.154, 394.043 700.146, 400.945 704.283 C 415.162 712.802, 418.466 719.749, 411.297 726.044 C 403.739 732.680, 387.897 738.227, 376 738.404 C 369.804 738.495, 369.515 738.394, 369.814 736.243 C 370.195 733.505, 367.950 732.421, 365.078 733.958 C 362.896 735.126, 362.206 740.199, 363.871 742.826 C 366.526 747.014, 392.726 742.799, 406.780 735.924 C 417.650 730.607, 422 726.317, 422 720.917 C 422 718.708, 421.361 715.686, 420.580 714.200 C 418.523 710.288, 411.382 703.873, 404.702 699.936 C 399.549 696.900, 398.972 696.240, 399.520 694.010 C 399.858 692.629, 400.809 690.459, 401.632 689.187 C 403.569 686.193, 411.412 681.235, 416.289 679.922 C 420.287 678.846, 428.632 679.595, 429.571 681.115 C 430.300 682.295, 434 682.253, 434 681.065 C 434 680.551, 433.561 678.976, 433.025 677.565 C 432.075 675.066, 431.811 675, 422.775 675.001 C 415.460 675.001, 412.631 675.432, 409.387 677.037 M 838 680.414 C 820.587 686.680, 816.620 689.681, 815.452 697.472 C 814.516 703.714, 815.288 705.125, 822.469 710.291 C 828.683 714.761, 837.998 725.212, 837.999 727.715 C 838.001 730.117, 832.033 735.656, 826.345 738.534 C 821.735 740.866, 819.224 741.472, 814.107 741.484 C 810.273 741.494, 807.520 741.052, 807.299 740.392 C 807.095 739.782, 806.295 738.432, 805.523 737.392 C 803.718 734.963, 800.638 736.562, 800.203 740.153 C 799.506 745.894, 808.324 748.330, 821.668 746.084 C 832.073 744.332, 840.394 739.890, 843.637 734.356 C 846.183 730.013, 846.226 729.697, 844.714 726.527 C 843.391 723.753, 839.051 718.144, 832.699 711 C 831.966 710.175, 829.258 708.047, 826.683 706.271 C 822.159 703.151, 822 702.871, 822 698.033 L 822 693.025 828.750 689.627 C 832.462 687.758, 837.411 685.656, 839.747 684.957 C 843.518 683.828, 844.215 683.885, 845.960 685.464 C 849.826 688.963, 852.921 684.115, 849.608 679.750 C 847.876 677.469, 845.865 677.584, 838 680.414 M 529 681.036 C 525.425 682.078, 521.332 682.946, 519.905 682.965 C 518.478 682.984, 516.610 683.788, 515.755 684.750 C 513.695 687.068, 510.557 697.506, 508.431 709.110 C 507.485 714.274, 505.675 721.259, 504.409 724.632 C 502.407 729.963, 502.287 731.007, 503.495 732.632 C 504.574 734.084, 505.269 734.264, 506.615 733.439 C 508.933 732.020, 512.880 721.487, 512.964 716.500 C 513.001 714.300, 513.377 711.955, 513.800 711.289 C 515.178 709.121, 521.503 707.128, 529.231 706.428 C 537.354 705.692, 539.658 704.874, 538.569 703.112 C 537.603 701.549, 530.135 701.730, 523.419 703.479 C 520.296 704.292, 517.292 704.681, 516.744 704.342 C 516.156 703.978, 515.974 701.227, 516.300 697.632 C 516.707 693.135, 517.391 691.102, 518.908 689.873 C 521.714 687.601, 535.147 684.584, 542.664 684.538 C 549.824 684.494, 551.012 683.776, 548.506 681.006 C 546.140 678.392, 538.034 678.404, 529 681.036 M 667.716 684.426 C 666.339 685.804, 661.308 702.922, 659.084 713.799 C 657.926 719.459, 657.608 734.814, 658.594 737.385 C 659.096 738.692, 660.633 738.839, 668.420 738.328 C 676.329 737.808, 678.605 738.038, 684.300 739.934 C 691.611 742.366, 695.317 742.354, 695.785 739.895 C 696.160 737.925, 688.585 735.652, 675.832 733.906 C 664.607 732.370, 664.329 732.184, 665.818 727.213 C 666.468 725.043, 667 722.115, 667 720.706 C 667 717.995, 667.827 717.693, 682 715.221 C 684.934 714.710, 686.500 713.926, 686.500 712.968 C 686.500 711.757, 684.883 711.564, 677.250 711.866 C 666.506 712.290, 667.117 713.216, 669.182 699.646 C 669.932 694.718, 670.901 691.592, 671.782 691.254 C 672.554 690.957, 678.125 691.738, 684.161 692.989 C 692.701 694.758, 695.400 694.996, 696.319 694.060 C 698.398 691.944, 693.758 689.424, 684.336 687.553 C 679.485 686.590, 674.298 685.171, 672.808 684.401 C 669.473 682.676, 669.467 682.676, 667.716 684.426 M 448.167 686.750 C 447.671 687.712, 446.692 690.975, 445.993 694 C 445.294 697.025, 442.813 703.775, 440.480 709 C 434.586 722.196, 430.766 733.316, 431.164 736.116 C 431.579 739.038, 434.520 739.744, 436.985 737.514 C 437.995 736.600, 439.803 732.173, 441.003 727.676 C 442.203 723.179, 445.354 714.550, 448.006 708.500 C 453.513 695.933, 455.373 689.749, 454.484 686.951 C 453.700 684.478, 449.410 684.342, 448.167 686.750 M 971.778 687.750 C 968.622 691.094, 966.714 697.345, 963.973 713.331 C 961.591 727.220, 957.097 743, 955.522 743 C 954.535 743, 950.037 712.554, 949.488 702.165 C 949.239 697.457, 947.055 694.381, 944.623 695.315 C 942.283 696.212, 939.538 702.381, 936.087 714.500 C 934.350 720.599, 930.444 730.536, 927.318 736.805 C 922.109 747.250, 921.804 748.233, 923.309 749.738 C 924.814 751.243, 925.076 751.241, 926.756 749.720 C 927.757 748.815, 930.461 744.534, 932.767 740.207 C 935.870 734.384, 937.225 730.411, 937.984 724.920 C 939.945 710.714, 940.822 709.415, 944.927 714.635 C 946.775 716.984, 947 718.638, 947.002 729.885 C 947.004 746.435, 949.647 752.309, 956.337 750.630 C 961.352 749.372, 966.463 735.794, 970.502 713 C 973.620 695.398, 974.369 692.942, 977.517 689.984 C 979.395 688.219, 979.713 687.359, 978.865 686.337 C 977.132 684.249, 974.608 684.752, 971.778 687.750 M 474.003 688.492 C 473.451 689.943, 473 691.944, 473 692.939 C 473 696.954, 469.654 703.718, 462.661 713.841 C 453.928 726.484, 452 730.033, 452 733.472 C 452 738.203, 455.016 738.520, 472.341 735.606 C 490.904 732.483, 493.742 731.599, 491.986 729.483 C 490.311 727.465, 484.308 727.637, 474 730 C 465.725 731.897, 459 732.552, 459 731.460 C 459 730.173, 463.672 721.929, 468.251 715.135 C 475.159 704.888, 478.214 697.806, 478.370 691.681 C 478.475 687.552, 478.163 686.498, 476.753 686.210 C 475.604 685.976, 474.663 686.757, 474.003 688.492 M 633.941 689.467 C 630.333 691.319, 625.673 694.727, 623.584 697.039 C 616.406 704.984, 609.616 723.350, 611.331 730.182 C 611.675 731.553, 612.941 733.927, 614.144 735.456 C 616.262 738.149, 616.575 738.223, 623.916 737.786 C 630.201 737.412, 633.085 736.596, 640.750 733.023 C 648.577 729.373, 650 728.348, 650 726.355 C 650 723.142, 648.603 723.334, 638 728 C 633.001 730.200, 627.580 732, 625.955 732 C 623.224 732, 622.993 731.715, 622.903 728.250 C 622.656 718.670, 623.226 716.201, 627.974 706.305 C 632.038 697.836, 633.551 695.677, 636.913 693.555 C 639.239 692.087, 642.432 691, 644.421 691 C 648.345 691, 649.744 689.601, 647.964 687.456 C 646.028 685.123, 640.993 685.845, 633.941 689.467 M 1000 686.639 C 979.062 689.713, 979.435 689.615, 981.097 691.617 C 981.758 692.413, 984.122 693, 986.668 693 L 991.091 693 990.533 696.250 C 989.476 702.413, 987.039 725.525, 986.396 735.500 C 985.791 744.872, 985.884 745.620, 987.881 747.411 C 989.053 748.461, 990.235 749.098, 990.508 748.826 C 991.597 747.736, 994.066 726.684, 994.650 713.500 C 994.991 705.800, 995.640 699.027, 996.093 698.448 C 996.546 697.869, 996.663 696.427, 996.353 695.243 C 995.754 692.952, 995.377 693.136, 1005 691.033 C 1014.639 688.926, 1021.134 690.571, 1024.294 695.920 C 1027.435 701.237, 1025.975 713.270, 1021.008 723 C 1015.335 734.114, 990.303 754.611, 983.953 753.341 C 981.769 752.904, 980.926 753.270, 979.959 755.076 C 978.894 757.067, 979.027 757.603, 980.978 759.183 C 982.212 760.182, 983.865 761, 984.651 761 C 986.818 761, 993.610 757.345, 1002.500 751.395 C 1019.066 740.306, 1028.246 730.850, 1032.317 720.681 C 1035.546 712.615, 1035.713 706.890, 1032.925 699.787 C 1028.849 689.403, 1023.222 685.932, 1010.790 686.136 C 1006.230 686.211, 1001.375 686.438, 1000 686.639 M 1056.412 693.457 C 1046.020 698.795, 1040.177 706.602, 1044.250 709.709 C 1044.938 710.233, 1048.392 711.692, 1051.927 712.950 C 1062.194 716.603, 1067.502 720.385, 1071.040 726.570 L 1074.156 732.015 1072.422 737.258 C 1071.033 741.459, 1068.877 744.338, 1061.571 751.750 C 1056.557 756.837, 1051.906 761, 1051.236 761 C 1050.566 761, 1049.002 759.431, 1047.759 757.512 C 1045.258 753.651, 1042.467 752.952, 1041.516 755.950 C 1040.843 758.071, 1042.934 762.870, 1045.436 764.947 C 1046.463 765.799, 1048.840 766.095, 1052.334 765.805 C 1056.568 765.454, 1058.895 764.500, 1063.653 761.162 C 1066.947 758.852, 1071.185 754.897, 1073.071 752.375 C 1074.957 749.853, 1077.513 746.420, 1078.750 744.747 C 1082.357 739.869, 1081.877 732.844, 1077.433 725.441 C 1072.242 716.796, 1069.734 714.585, 1060.390 710.422 C 1055.775 708.366, 1052 706.168, 1052 705.538 C 1052 703.938, 1057.860 698.546, 1061.700 696.612 C 1066.383 694.253, 1069 694.500, 1069 697.300 C 1069 699.868, 1070.701 702, 1072.750 702 C 1073.761 702, 1074.025 700.558, 1073.800 696.250 L 1073.500 690.500 1068.412 690.203 C 1064.201 689.958, 1062.134 690.518, 1056.412 693.457 M 1319.784 695.074 C 1318.123 696.871, 1317.305 698.632, 1317.679 699.607 C 1318.016 700.484, 1317.663 701.600, 1316.896 702.086 C 1315.988 702.660, 1315.917 702.975, 1316.693 702.985 C 1317.353 702.993, 1317.709 703.913, 1317.491 705.045 C 1316.909 708.070, 1317.854 709.747, 1320.519 710.415 C 1321.825 710.743, 1323.690 712.359, 1324.662 714.006 C 1325.635 715.653, 1327.009 717.067, 1327.716 717.150 C 1328.422 717.232, 1329.563 717.345, 1330.250 717.400 C 1330.938 717.455, 1331.748 717.832, 1332.052 718.238 C 1332.883 719.351, 1342.990 721.077, 1347.223 720.830 C 1349.270 720.710, 1350.737 720.403, 1350.481 720.148 C 1350.226 719.893, 1350.427 719.193, 1350.927 718.592 C 1351.572 717.818, 1350.159 717.596, 1346.076 717.831 C 1336.888 718.359, 1332.389 716.634, 1326.306 710.252 C 1321.657 705.375, 1321 704.175, 1321 700.565 C 1321 698.299, 1321.701 695.445, 1322.557 694.223 C 1324.777 691.052, 1322.997 691.599, 1319.784 695.074 M 868.972 701.534 C 868.091 702.596, 866.291 702.981, 863.134 702.784 C 859.454 702.555, 858.500 702.838, 858.212 704.247 C 857.978 705.389, 858.746 706.333, 860.427 706.972 C 861.842 707.510, 863 708.145, 863 708.383 C 863 708.621, 861.872 710.994, 860.494 713.658 C 855.189 723.909, 855.032 733.957, 860.076 740.369 C 864.486 745.976, 873.461 742.472, 880.672 732.328 C 883.438 728.439, 884 726.750, 884 722.334 C 884 717.679, 883.352 715.964, 878.776 708.510 C 873.508 699.930, 871.493 698.496, 868.972 701.534 M 911.212 702.188 C 909.539 703.861, 909.695 707.120, 911.579 709.809 C 914.188 713.534, 915.066 718.042, 913.973 722.102 C 913.025 725.619, 904.794 736, 902.953 736 C 901.830 736, 901.213 732.114, 900.026 717.562 C 898.986 704.816, 897.913 702.258, 894.112 703.465 C 891.610 704.258, 891.557 704.967, 893.511 711.409 C 895.243 717.119, 895.461 729.800, 893.922 735.341 C 893.026 738.570, 893.131 739.487, 894.583 741.091 C 899.872 746.936, 914.402 737.457, 919.095 725.102 C 920.951 720.215, 921.075 718.926, 920.071 715 C 918.679 709.563, 914.895 701.707, 913.462 701.282 C 912.892 701.113, 911.879 701.521, 911.212 702.188 M 867.191 716.250 C 866.117 719.138, 864.922 723.403, 864.535 725.729 C 863.740 730.507, 865.426 737, 867.461 737 C 869.328 737, 875.929 729.413, 877.654 725.286 C 878.505 723.250, 878.851 720.596, 878.483 718.923 C 877.828 715.940, 872.847 711, 870.495 711 C 869.752 711, 868.265 713.362, 867.191 716.250 M 1146.500 722.731 C 1143.200 723.593, 1138.784 724.706, 1136.687 725.204 C 1133.897 725.868, 1132.961 726.565, 1133.196 727.805 C 1133.616 730.021, 1140.350 730.553, 1147.346 728.924 C 1150.181 728.264, 1157.628 727.448, 1163.895 727.112 C 1173.099 726.618, 1175.497 726.173, 1176.360 724.798 C 1176.948 723.862, 1177.070 722.737, 1176.632 722.298 C 1175.095 720.761, 1152.818 721.082, 1146.500 722.731 M 1432.100 722 C 1432.086 722.275, 1433.596 729.925, 1435.456 739 C 1437.316 748.075, 1438.874 754.715, 1438.919 753.757 C 1439.029 751.393, 1434.144 726.515, 1433.023 723.728 C 1432.530 722.503, 1432.115 721.725, 1432.100 722 M 527 727.567 C 519.575 730.088, 512.695 732.934, 511.711 733.892 C 508.238 737.273, 512.240 740.825, 515.921 737.630 C 516.790 736.876, 521.325 735.020, 526 733.506 C 539.409 729.162, 544.134 726.934, 543.784 725.119 C 543.274 722.468, 541.074 722.789, 527 727.567 M 1346.682 745.385 C 1346.024 747.100, 1348.792 751.246, 1350.068 750.458 C 1350.581 750.141, 1351 750.359, 1351 750.941 C 1351 751.523, 1352.575 752, 1354.500 752 C 1356.625 752, 1358.006 751.509, 1358.015 750.750 C 1358.026 749.917, 1358.354 750, 1359 751 C 1359.646 752, 1359.974 752.083, 1359.985 751.250 C 1359.993 750.563, 1360.900 750, 1362 750 C 1363.100 750, 1364 749.550, 1364 749 C 1364 748.450, 1364.675 748, 1365.500 748 C 1367.181 748, 1367.545 745.455, 1366 744.500 C 1365.450 744.160, 1365 744.349, 1365 744.921 C 1365 746.336, 1357.621 750.002, 1354.790 749.993 C 1351.823 749.985, 1347.178 746.862, 1347.735 745.250 C 1348.327 743.535, 1347.344 743.661, 1346.682 745.385 M 1340.500 797.061 C 1334.450 797.542, 1323.200 798.841, 1315.500 799.948 C 1307.800 801.055, 1295.650 802.433, 1288.500 803.010 C 1259.042 805.387, 1254.679 805.901, 1253.949 807.082 C 1253.468 807.861, 1251.913 808.085, 1249.600 807.710 C 1245.393 807.027, 1244.811 808.501, 1248.605 810.230 C 1250.768 811.215, 1251.742 811.109, 1254.355 809.603 C 1256.795 808.197, 1261.870 807.476, 1277 806.385 C 1287.725 805.612, 1302.800 804.094, 1310.500 803.011 C 1336.205 799.396, 1347.291 798.669, 1378 798.584 C 1409.619 798.497, 1411.101 798.639, 1426 803.180 C 1434.472 805.763, 1451.330 806.099, 1453.696 803.733 C 1454.838 802.590, 1455.041 801.406, 1454.449 799.335 L 1453.639 796.500 1453.219 799 C 1452.622 802.549, 1451.492 802.968, 1442.500 802.979 C 1436.518 802.986, 1431.725 802.197, 1423.500 799.853 L 1412.500 796.717 1382 796.452 C 1365.225 796.307, 1346.550 796.581, 1340.500 797.061" stroke="none" fill="#0a0608" fill-rule="evenodd"/><path d="M 1497.845 596.580 C 1495.455 598.549, 1492.116 601.970, 1490.424 604.183 C 1487.741 607.693, 1487.430 608.736, 1487.990 612.353 C 1488.343 614.634, 1489.164 617.483, 1489.816 618.684 C 1490.467 619.886, 1491 621.248, 1491 621.712 C 1491 622.176, 1487.963 625.789, 1484.250 629.740 C 1475.850 638.679, 1474.575 640.172, 1472.342 643.684 C 1468.222 650.166, 1462.116 656.291, 1450.599 665.500 C 1445.783 669.350, 1437.991 676.212, 1433.282 680.750 C 1428.573 685.288, 1424.526 689, 1424.288 689 C 1421.197 689, 1417.995 677.539, 1414.509 654 C 1413.083 644.375, 1411.023 632.074, 1409.929 626.666 C 1408.635 620.264, 1408.194 615.551, 1408.667 613.166 C 1409.066 611.149, 1409.271 608.684, 1409.122 607.687 C 1408.974 606.689, 1409.561 604.793, 1410.426 603.472 C 1412.555 600.223, 1412.410 598.734, 1409.718 596.205 C 1407.582 594.198, 1407.246 594.159, 1404.468 595.587 C 1402.836 596.426, 1399.475 599.073, 1397 601.470 C 1393.391 604.965, 1385.513 609.598, 1384.233 608.978 C 1384.087 608.907, 1382.737 609.115, 1381.233 609.441 C 1379.730 609.767, 1377.487 610.251, 1376.250 610.517 C 1371.583 611.519, 1370.151 611.864, 1366.625 612.838 C 1364.631 613.388, 1363 613.634, 1363 613.384 C 1363 613.134, 1362.213 613.345, 1361.250 613.852 C 1360.287 614.359, 1357.700 615.038, 1355.500 615.359 C 1353.300 615.681, 1350.375 616.186, 1349 616.482 C 1347.625 616.778, 1345.375 617.236, 1344 617.500 C 1342.625 617.764, 1340.375 618.214, 1339 618.500 C 1337.625 618.786, 1335.375 619.236, 1334 619.500 C 1332.625 619.764, 1330.375 620.225, 1329 620.524 C 1327.625 620.824, 1325.150 621.272, 1323.500 621.520 C 1321.850 621.768, 1319.393 622.195, 1318.040 622.468 C 1316.687 622.742, 1313.969 623.206, 1312 623.500 C 1310.031 623.794, 1307.313 624.255, 1305.960 624.526 C 1304.607 624.797, 1301.700 625.244, 1299.500 625.520 C 1297.300 625.797, 1293.925 626.232, 1292 626.488 C 1290.075 626.744, 1286.025 627.227, 1283 627.561 C 1268.552 629.156, 1262.317 630.133, 1255 631.951 C 1247.755 633.750, 1246.085 633.807, 1244.832 632.297 C 1242.360 629.320, 1235 633.330, 1235 637.655 C 1235 640.275, 1238.212 644, 1240.471 644 C 1241.280 644, 1243.876 642.637, 1246.240 640.970 C 1251.711 637.114, 1258.162 635.431, 1275 633.468 C 1295.469 631.083, 1319.019 627.317, 1344.500 622.355 C 1373.195 616.767, 1385.909 613.587, 1392.102 610.448 C 1397.352 607.788, 1400.076 607.435, 1403.056 609.030 C 1404.649 609.883, 1404.778 610.383, 1403.804 611.942 C 1402.875 613.429, 1403.078 615.994, 1404.769 624.162 C 1405.947 629.848, 1408.080 642.600, 1409.510 652.500 C 1412.429 672.710, 1414.180 680.348, 1420.511 700.500 C 1427.130 721.569, 1429.698 731.809, 1433.049 750.500 C 1436.474 769.597, 1439.136 780.733, 1442.034 788.085 C 1443.115 790.829, 1444 793.534, 1444 794.097 C 1444 795.089, 1439.039 794.760, 1437.241 793.649 C 1436.756 793.349, 1435.266 792.879, 1433.930 792.603 C 1432.593 792.328, 1430.375 791.812, 1429 791.458 C 1427.625 791.103, 1412.775 790.800, 1396 790.785 C 1368.342 790.759, 1357.537 791.101, 1339.500 792.574 C 1327.778 793.531, 1313.614 794.997, 1310.738 795.550 C 1309.551 795.779, 1306.969 796.206, 1305 796.500 C 1303.031 796.794, 1300.313 797.316, 1298.960 797.660 C 1297.607 798.004, 1287.950 798.478, 1277.500 798.712 C 1253.493 799.251, 1253.836 799.410, 1256.304 788.861 C 1258.564 779.197, 1258.483 776.256, 1255.364 754.709 C 1253.545 742.143, 1252.806 733.246, 1252.978 726 C 1253.675 696.728, 1252.793 685.319, 1247.823 659.296 C 1245.615 647.736, 1244.184 645.388, 1241.176 648.395 C 1239.885 649.687, 1239.896 650.264, 1241.268 653.182 C 1242.126 655.007, 1243.559 662.206, 1244.451 669.180 C 1246.031 681.525, 1246.353 702.961, 1246.206 785.994 C 1246.181 800.534, 1246.509 806.702, 1247.335 807.228 C 1249.081 808.339, 1253.783 808.150, 1254.182 806.953 C 1254.525 805.924, 1261.094 805.165, 1288 803.048 C 1295.425 802.463, 1307.420 801.115, 1314.655 800.052 C 1335.834 796.941, 1358.706 795.739, 1386.706 796.266 C 1411.847 796.739, 1412.779 796.831, 1423.500 799.870 C 1431.465 802.128, 1436.616 802.990, 1442.168 802.994 C 1451.931 803.002, 1453 802.569, 1453 798.609 C 1453 796.145, 1452.332 795.037, 1450.028 793.675 C 1448.062 792.515, 1446.728 790.663, 1446.088 788.210 C 1442.877 775.892, 1441.584 770.030, 1437.031 747.156 C 1434.257 733.217, 1430.810 718.367, 1429.373 714.156 C 1425.193 701.913, 1424.962 700.318, 1426.995 697.734 C 1427.976 696.487, 1429.445 693.899, 1430.260 691.983 C 1431.782 688.403, 1442.343 677.963, 1452.497 670 C 1460.695 663.570, 1473.584 650.431, 1478.002 644 C 1480.080 640.975, 1485.431 634.960, 1489.894 630.634 C 1496.650 624.085, 1498.384 622.886, 1500.254 623.468 C 1501.489 623.852, 1504.750 624.386, 1507.500 624.655 C 1512.026 625.096, 1512.867 624.835, 1516.371 621.899 C 1518.500 620.115, 1520.780 617.374, 1521.439 615.808 C 1522.770 612.642, 1521.999 603.257, 1520.318 602.163 C 1519.758 601.798, 1518.750 600.458, 1518.079 599.184 C 1516.686 596.540, 1509.206 593, 1505.012 593 C 1503.250 593, 1500.557 594.345, 1497.845 596.580 M 1336.500 656.128 C 1322.235 661.615, 1317 664.302, 1317 666.135 C 1317 668.960, 1325.231 668.671, 1331.563 665.624 C 1341.005 661.081, 1347.489 659.530, 1351.730 660.801 C 1359.429 663.108, 1359.589 663.792, 1353.964 670.364 C 1348.195 677.102, 1344.056 680.154, 1335.207 684.189 C 1331.746 685.767, 1328.661 687.720, 1328.350 688.529 C 1328.040 689.338, 1327.175 690, 1326.428 690 C 1325.681 690, 1324.582 690.913, 1323.985 692.028 C 1323.388 693.143, 1322.576 693.856, 1322.181 693.612 C 1321.786 693.368, 1321.335 695.735, 1321.180 698.873 C 1320.899 704.538, 1320.934 704.617, 1326.242 710.185 C 1329.872 713.993, 1332.856 716.144, 1335.543 716.890 C 1340.016 718.132, 1349.986 718.347, 1351.500 717.235 C 1353.418 715.826, 1352.992 713.333, 1350.615 712.061 C 1349.298 711.357, 1347.653 709.720, 1346.959 708.424 C 1346.266 707.128, 1345.316 706.304, 1344.849 706.593 C 1344.382 706.882, 1344 706.390, 1344 705.500 C 1344 704.610, 1344.403 704.131, 1344.895 704.435 C 1346.072 705.162, 1347.096 702.414, 1346.362 700.500 C 1346.045 699.675, 1346.270 699, 1346.862 699 C 1347.453 699, 1347.720 698.435, 1347.455 697.744 C 1346.443 695.105, 1352.926 689.246, 1361.349 685.187 C 1372.467 679.829, 1374.153 677.627, 1373.895 668.802 C 1373.781 664.872, 1373.177 661.562, 1372.468 660.974 C 1371.793 660.413, 1367.277 658.615, 1362.432 656.977 C 1352.049 653.467, 1344.094 653.207, 1336.500 656.128 M 1349.441 740.426 C 1345.277 743.485, 1348.906 749.976, 1354.790 749.993 C 1357.251 750, 1364.950 746.435, 1365.077 745.230 C 1365.119 744.828, 1365.305 743.707, 1365.490 742.739 C 1365.675 741.770, 1364.995 740.533, 1363.979 739.989 C 1361.197 738.500, 1351.673 738.786, 1349.441 740.426" stroke="none" fill="#ce4b89" fill-rule="evenodd"/></svg>